<svg xmlns="http://www.w3.org/2000/svg" xmlns:xlink="http://www.w3.org/1999/xlink" width="500" zoomAndPan="magnify" viewBox="0 0 375 374.999991" height="500" preserveAspectRatio="xMidYMid meet" version="1.0"><defs><g/><clipPath id="7ea99248c1"><path d="M 112.5 124 L 229 124 L 229 182 L 112.5 182 Z M 112.5 124 " clip-rule="nonzero"/></clipPath><clipPath id="8dde24918a"><path d="M 130 91.847656 L 262.5 91.847656 L 262.5 213.671875 L 130 213.671875 Z M 130 91.847656 " clip-rule="nonzero"/></clipPath></defs><g clip-path="url(#7ea99248c1)"><path fill="#4ba658" d="M 182.945312 181.035156 C 182.730469 181.035156 182.515625 181.019531 182.296875 180.984375 C 180.367188 180.679688 178.898438 179.0625 178.644531 176.957031 L 173.105469 130.617188 L 165.621094 159.515625 C 165.140625 161.378906 163.546875 162.679688 161.753906 162.679688 L 114.769531 162.679688 C 113.515625 162.679688 112.5 161.664062 112.5 160.40625 L 112.5 160.363281 C 112.5 159.105469 113.515625 158.089844 114.769531 158.089844 L 161.25 158.089844 L 169.066406 127.894531 C 169.628906 125.722656 171.402344 124.359375 173.476562 124.496094 C 175.5625 124.636719 177.210938 126.3125 177.480469 128.566406 L 183.089844 175.464844 L 190.777344 158.765625 C 191.460938 157.285156 192.839844 156.367188 194.371094 156.367188 L 225.816406 156.367188 C 227.070312 156.367188 228.089844 157.382812 228.089844 158.640625 L 228.089844 158.683594 C 228.089844 159.941406 227.070312 160.957031 225.816406 160.957031 L 194.824219 160.957031 L 186.761719 178.457031 C 186.015625 180.074219 184.5625 181.035156 182.945312 181.035156 " fill-opacity="1" fill-rule="nonzero"/></g><g clip-path="url(#8dde24918a)"><path fill="#4ba658" d="M 262.460938 126.097656 C 262.535156 117.667969 257.929688 109.925781 257.511719 109.242188 C 254.488281 104.054688 250.148438 99.699219 244.964844 96.65625 C 239.617188 93.511719 233.496094 91.851562 227.257812 91.851562 C 214.394531 91.851562 202.761719 98.867188 196.664062 109.824219 C 196.507812 110.109375 196.09375 110.109375 195.933594 109.824219 C 189.839844 98.871094 178.203125 91.855469 165.34375 91.855469 C 159.109375 91.855469 152.984375 93.515625 147.636719 96.65625 C 142.453125 99.703125 138.113281 104.058594 135.085938 109.25 C 134.679688 109.917969 130.066406 117.710938 130.140625 126.097656 C 130.046875 127.53125 129.78125 133.992188 131.804688 140.800781 C 131.992188 141.433594 132.457031 142.648438 132.835938 143.625 C 133.175781 144.492188 134.015625 145.066406 134.949219 145.066406 L 135 145.066406 C 136.617188 145.066406 137.714844 143.414062 137.089844 141.917969 C 136.820312 141.273438 136.585938 140.6875 136.472656 140.351562 C 134.304688 133.726562 134.679688 126.980469 134.71875 126.347656 L 134.730469 126.253906 L 134.730469 126.097656 C 134.652344 118.925781 138.863281 111.871094 139.011719 111.628906 L 139.039062 111.578125 C 144.476562 102.242188 154.554688 96.441406 165.34375 96.441406 C 178.355469 96.441406 189.921875 104.710938 194.128906 117.015625 L 194.152344 117.078125 C 194.851562 119.128906 197.75 119.128906 198.449219 117.078125 L 198.472656 117.015625 C 202.675781 104.707031 214.242188 96.4375 227.257812 96.4375 C 238.046875 96.4375 248.125 102.238281 253.558594 111.574219 L 253.59375 111.628906 C 253.765625 111.917969 257.949219 118.945312 257.871094 126.09375 L 257.871094 126.253906 L 257.882812 126.347656 C 257.933594 127.097656 258.425781 136.105469 254.84375 143.570312 L 254.769531 143.742188 C 252.878906 148.667969 250.136719 153.570312 246.625 158.308594 L 244.867188 160.679688 L 245.007812 160.738281 C 231.132812 180.902344 204.871094 202.535156 196.914062 208.867188 C 196.691406 209.046875 196.457031 209.082031 196.300781 209.082031 C 196.144531 209.082031 195.910156 209.046875 195.6875 208.867188 C 191.679688 205.675781 183.023438 198.597656 173.648438 189.785156 C 173.226562 189.390625 172.667969 189.167969 172.09375 189.167969 L 172.027344 189.167969 C 169.972656 189.167969 168.976562 191.683594 170.472656 193.09375 C 180.011719 202.066406 188.789062 209.242188 192.847656 212.472656 C 193.824219 213.25 195.035156 213.671875 196.28125 213.671875 L 196.300781 213.671875 C 197.554688 213.671875 198.789062 213.242188 199.769531 212.460938 C 208.167969 205.777344 236.613281 182.328125 250.382812 160.949219 C 254.085938 155.933594 256.996094 150.726562 259.023438 145.46875 C 262.90625 137.304688 262.566406 127.835938 262.460938 126.097656 " fill-opacity="1" fill-rule="nonzero"/></g><g fill="#000000" fill-opacity="1"><g transform="translate(85.003087, 246.236643)"><g><path d="M 7.328125 0 L 2.234375 0 L 2.234375 -21.859375 L 11.703125 -21.859375 C 12.847656 -21.859375 13.898438 -21.671875 14.859375 -21.296875 C 15.816406 -20.921875 16.648438 -20.394531 17.359375 -19.71875 C 18.066406 -19.050781 18.613281 -18.253906 19 -17.328125 C 19.382812 -16.398438 19.578125 -15.390625 19.578125 -14.296875 C 19.578125 -13.109375 19.382812 -12.035156 19 -11.078125 C 18.613281 -10.128906 18.070312 -9.3125 17.375 -8.625 C 16.675781 -7.945312 15.847656 -7.421875 14.890625 -7.046875 C 13.941406 -6.679688 12.898438 -6.5 11.765625 -6.5 L 7.328125 -6.5 Z M 7.328125 -17.328125 L 7.328125 -11.015625 L 11.5 -11.015625 C 12.050781 -11.015625 12.550781 -11.15625 13 -11.4375 C 13.457031 -11.726562 13.816406 -12.125 14.078125 -12.625 C 14.347656 -13.125 14.484375 -13.679688 14.484375 -14.296875 C 14.484375 -14.804688 14.347656 -15.289062 14.078125 -15.75 C 13.816406 -16.207031 13.457031 -16.582031 13 -16.875 C 12.550781 -17.175781 12.050781 -17.328125 11.5 -17.328125 Z M 7.328125 -17.328125 "/></g></g></g><g fill="#000000" fill-opacity="1"><g transform="translate(104.949966, 246.236643)"><g><path d="M 9.796875 0.53125 C 8.492188 0.53125 7.300781 0.300781 6.21875 -0.15625 C 5.132812 -0.625 4.195312 -1.257812 3.40625 -2.0625 C 2.625 -2.875 2.019531 -3.816406 1.59375 -4.890625 C 1.164062 -5.960938 0.953125 -7.109375 0.953125 -8.328125 C 0.953125 -9.535156 1.164062 -10.675781 1.59375 -11.75 C 2.019531 -12.820312 2.625 -13.765625 3.40625 -14.578125 C 4.195312 -15.390625 5.132812 -16.023438 6.21875 -16.484375 C 7.300781 -16.953125 8.5 -17.1875 9.8125 -17.1875 C 11.125 -17.1875 12.328125 -16.953125 13.421875 -16.484375 C 14.515625 -16.023438 15.453125 -15.390625 16.234375 -14.578125 C 17.023438 -13.765625 17.640625 -12.820312 18.078125 -11.75 C 18.515625 -10.6875 18.734375 -9.546875 18.734375 -8.328125 C 18.734375 -7.109375 18.515625 -5.960938 18.078125 -4.890625 C 17.640625 -3.816406 17.023438 -2.867188 16.234375 -2.046875 C 15.441406 -1.234375 14.5 -0.597656 13.40625 -0.140625 C 12.3125 0.304688 11.109375 0.53125 9.796875 0.53125 Z M 9.84375 -4.03125 C 10.625 -4.03125 11.3125 -4.210938 11.90625 -4.578125 C 12.5 -4.941406 12.96875 -5.445312 13.3125 -6.09375 C 13.65625 -6.738281 13.828125 -7.484375 13.828125 -8.328125 C 13.828125 -9.171875 13.65625 -9.914062 13.3125 -10.5625 C 12.96875 -11.207031 12.5 -11.710938 11.90625 -12.078125 C 11.3125 -12.441406 10.625 -12.625 9.84375 -12.625 C 9.070312 -12.625 8.382812 -12.441406 7.78125 -12.078125 C 7.175781 -11.710938 6.703125 -11.207031 6.359375 -10.5625 C 6.015625 -9.914062 5.84375 -9.171875 5.84375 -8.328125 C 5.84375 -7.484375 6.015625 -6.738281 6.359375 -6.09375 C 6.703125 -5.445312 7.175781 -4.941406 7.78125 -4.578125 C 8.382812 -4.210938 9.070312 -4.03125 9.84375 -4.03125 Z M 9.84375 -4.03125 "/></g></g></g><g fill="#000000" fill-opacity="1"><g transform="translate(124.623594, 246.236643)"><g><path d="M 6.875 0 L 1.90625 0 L 1.90625 -16.65625 L 6.65625 -16.65625 L 6.65625 -14.3125 C 7.03125 -15.007812 7.535156 -15.570312 8.171875 -16 C 8.804688 -16.4375 9.613281 -16.65625 10.59375 -16.65625 L 12.515625 -16.65625 L 12.515625 -12.4375 L 10.859375 -12.4375 C 9.617188 -12.4375 8.644531 -12.023438 7.9375 -11.203125 C 7.226562 -10.390625 6.875 -9.210938 6.875 -7.671875 Z M 6.875 0 "/></g></g></g><g fill="#000000" fill-opacity="1"><g transform="translate(137.562546, 246.236643)"><g><path d="M 12.84375 0 L 9.15625 0 C 8.664062 0 8.15625 -0.0390625 7.625 -0.125 C 7.09375 -0.207031 6.578125 -0.375 6.078125 -0.625 C 5.578125 -0.875 5.125 -1.234375 4.71875 -1.703125 C 4.3125 -2.179688 3.988281 -2.8125 3.75 -3.59375 C 3.507812 -4.375 3.390625 -5.34375 3.390625 -6.5 L 3.390625 -12.4375 L 0.1875 -12.4375 L 0.1875 -16.65625 L 3.390625 -16.65625 L 3.390625 -21.453125 L 8.34375 -21.5 L 8.34375 -16.65625 L 12.84375 -16.65625 L 12.84375 -12.4375 L 8.34375 -12.4375 L 8.34375 -6.265625 C 8.34375 -5.453125 8.523438 -4.882812 8.890625 -4.5625 C 9.253906 -4.238281 9.695312 -4.078125 10.21875 -4.078125 L 12.84375 -4.078125 Z M 12.84375 0 "/></g></g></g><g fill="#000000" fill-opacity="1"><g transform="translate(151.240867, 246.236643)"><g><path d="M 8.609375 0.546875 C 7.492188 0.546875 6.46875 0.316406 5.53125 -0.140625 C 4.59375 -0.597656 3.78125 -1.234375 3.09375 -2.046875 C 2.414062 -2.867188 1.890625 -3.816406 1.515625 -4.890625 C 1.140625 -5.960938 0.953125 -7.109375 0.953125 -8.328125 C 0.953125 -9.535156 1.140625 -10.675781 1.515625 -11.75 C 1.898438 -12.820312 2.429688 -13.765625 3.109375 -14.578125 C 3.796875 -15.390625 4.601562 -16.023438 5.53125 -16.484375 C 6.46875 -16.953125 7.484375 -17.1875 8.578125 -17.1875 C 9.816406 -17.1875 10.910156 -16.953125 11.859375 -16.484375 C 12.804688 -16.023438 13.53125 -15.367188 14.03125 -14.515625 L 14.03125 -16.65625 L 18.734375 -16.65625 L 18.734375 0 L 14.015625 0 L 14.015625 -2.109375 C 13.515625 -1.253906 12.789062 -0.597656 11.84375 -0.140625 C 10.90625 0.316406 9.828125 0.546875 8.609375 0.546875 Z M 9.828125 -4.015625 C 10.585938 -4.015625 11.265625 -4.203125 11.859375 -4.578125 C 12.460938 -4.960938 12.941406 -5.476562 13.296875 -6.125 C 13.648438 -6.78125 13.828125 -7.515625 13.828125 -8.328125 C 13.828125 -9.128906 13.648438 -9.851562 13.296875 -10.5 C 12.941406 -11.15625 12.460938 -11.675781 11.859375 -12.0625 C 11.253906 -12.445312 10.582031 -12.640625 9.84375 -12.640625 C 9.113281 -12.640625 8.441406 -12.46875 7.828125 -12.125 C 7.222656 -11.78125 6.738281 -11.285156 6.375 -10.640625 C 6.019531 -9.992188 5.84375 -9.222656 5.84375 -8.328125 C 5.84375 -7.378906 6.023438 -6.585938 6.390625 -5.953125 C 6.765625 -5.316406 7.253906 -4.832031 7.859375 -4.5 C 8.472656 -4.175781 9.128906 -4.015625 9.828125 -4.015625 Z M 9.828125 -4.015625 "/></g></g></g><g fill="#000000" fill-opacity="1"><g transform="translate(171.878889, 246.236643)"><g><path d="M 6.859375 0 L 1.90625 0 L 1.90625 -22.65625 L 6.859375 -22.65625 Z M 6.859375 0 "/></g></g></g><g fill="#8bd9d9" fill-opacity="1"><g transform="translate(180.674956, 246.236643)"><g/></g></g><g fill="#4ba658" fill-opacity="1"><g transform="translate(188.585111, 246.236643)"><g><path d="M 10.171875 0.546875 C 8.835938 0.546875 7.660156 0.40625 6.640625 0.125 C 5.628906 -0.15625 4.765625 -0.535156 4.046875 -1.015625 C 3.328125 -1.492188 2.742188 -2.039062 2.296875 -2.65625 C 1.847656 -3.28125 1.519531 -3.941406 1.3125 -4.640625 C 1.101562 -5.347656 1 -6.054688 1 -6.765625 L 6.09375 -6.765625 C 6.09375 -5.859375 6.445312 -5.125 7.15625 -4.5625 C 7.863281 -4.007812 8.863281 -3.734375 10.15625 -3.734375 C 11.582031 -3.734375 12.601562 -3.941406 13.21875 -4.359375 C 13.832031 -4.773438 14.140625 -5.394531 14.140625 -6.21875 C 14.140625 -6.726562 13.972656 -7.144531 13.640625 -7.46875 C 13.304688 -7.800781 12.8125 -8.085938 12.15625 -8.328125 C 11.5 -8.566406 10.695312 -8.789062 9.75 -9 C 9.007812 -9.1875 8.253906 -9.394531 7.484375 -9.625 C 6.722656 -9.863281 5.988281 -10.15625 5.28125 -10.5 C 4.570312 -10.851562 3.9375 -11.273438 3.375 -11.765625 C 2.8125 -12.253906 2.363281 -12.84375 2.03125 -13.53125 C 1.707031 -14.226562 1.546875 -15.039062 1.546875 -15.96875 C 1.546875 -17.238281 1.851562 -18.351562 2.46875 -19.3125 C 3.09375 -20.28125 4.03125 -21.035156 5.28125 -21.578125 C 6.53125 -22.128906 8.097656 -22.40625 9.984375 -22.40625 C 11.890625 -22.40625 13.476562 -22.117188 14.75 -21.546875 C 16.019531 -20.984375 16.96875 -20.1875 17.59375 -19.15625 C 18.226562 -18.132812 18.546875 -16.925781 18.546875 -15.53125 L 13.453125 -15.53125 C 13.453125 -15.9375 13.34375 -16.328125 13.125 -16.703125 C 12.90625 -17.078125 12.535156 -17.378906 12.015625 -17.609375 C 11.503906 -17.847656 10.804688 -17.96875 9.921875 -17.96875 C 9.015625 -17.96875 8.328125 -17.863281 7.859375 -17.65625 C 7.390625 -17.457031 7.066406 -17.203125 6.890625 -16.890625 C 6.722656 -16.578125 6.640625 -16.257812 6.640625 -15.9375 C 6.640625 -15.238281 7.023438 -14.6875 7.796875 -14.28125 C 8.566406 -13.882812 9.8125 -13.523438 11.53125 -13.203125 C 12.625 -12.972656 13.640625 -12.675781 14.578125 -12.3125 C 15.523438 -11.957031 16.347656 -11.503906 17.046875 -10.953125 C 17.753906 -10.410156 18.304688 -9.75 18.703125 -8.96875 C 19.109375 -8.1875 19.3125 -7.265625 19.3125 -6.203125 C 19.3125 -4.742188 18.921875 -3.515625 18.140625 -2.515625 C 17.367188 -1.515625 16.300781 -0.753906 14.9375 -0.234375 C 13.570312 0.285156 11.984375 0.546875 10.171875 0.546875 Z M 10.171875 0.546875 "/></g></g></g><g fill="#4ba658" fill-opacity="1"><g transform="translate(208.789162, 246.236643)"><g><path d="M 8.609375 0.546875 C 7.492188 0.546875 6.46875 0.316406 5.53125 -0.140625 C 4.59375 -0.597656 3.78125 -1.234375 3.09375 -2.046875 C 2.414062 -2.867188 1.890625 -3.816406 1.515625 -4.890625 C 1.140625 -5.960938 0.953125 -7.109375 0.953125 -8.328125 C 0.953125 -9.535156 1.140625 -10.675781 1.515625 -11.75 C 1.898438 -12.820312 2.429688 -13.765625 3.109375 -14.578125 C 3.796875 -15.390625 4.601562 -16.023438 5.53125 -16.484375 C 6.46875 -16.953125 7.484375 -17.1875 8.578125 -17.1875 C 9.816406 -17.1875 10.910156 -16.953125 11.859375 -16.484375 C 12.804688 -16.023438 13.53125 -15.367188 14.03125 -14.515625 L 14.03125 -16.65625 L 18.734375 -16.65625 L 18.734375 0 L 14.015625 0 L 14.015625 -2.109375 C 13.515625 -1.253906 12.789062 -0.597656 11.84375 -0.140625 C 10.90625 0.316406 9.828125 0.546875 8.609375 0.546875 Z M 9.828125 -4.015625 C 10.585938 -4.015625 11.265625 -4.203125 11.859375 -4.578125 C 12.460938 -4.960938 12.941406 -5.476562 13.296875 -6.125 C 13.648438 -6.78125 13.828125 -7.515625 13.828125 -8.328125 C 13.828125 -9.128906 13.648438 -9.851562 13.296875 -10.5 C 12.941406 -11.15625 12.460938 -11.675781 11.859375 -12.0625 C 11.253906 -12.445312 10.582031 -12.640625 9.84375 -12.640625 C 9.113281 -12.640625 8.441406 -12.46875 7.828125 -12.125 C 7.222656 -11.78125 6.738281 -11.285156 6.375 -10.640625 C 6.019531 -9.992188 5.84375 -9.222656 5.84375 -8.328125 C 5.84375 -7.378906 6.023438 -6.585938 6.390625 -5.953125 C 6.765625 -5.316406 7.253906 -4.832031 7.859375 -4.5 C 8.472656 -4.175781 9.128906 -4.015625 9.828125 -4.015625 Z M 9.828125 -4.015625 "/></g></g></g><g fill="#4ba658" fill-opacity="1"><g transform="translate(229.427184, 246.236643)"><g><path d="M 11.578125 -18.515625 L 8.34375 -18.515625 L 10.734375 -23.625 L 14.359375 -22.359375 Z M 9.703125 0.53125 C 8.585938 0.53125 7.539062 0.378906 6.5625 0.078125 C 5.59375 -0.222656 4.738281 -0.695312 4 -1.34375 C 3.269531 -2 2.695312 -2.851562 2.28125 -3.90625 C 1.875 -4.96875 1.671875 -6.253906 1.671875 -7.765625 L 1.671875 -16.65625 L 6.59375 -16.65625 L 6.59375 -7.921875 C 6.59375 -6.691406 6.835938 -5.734375 7.328125 -5.046875 C 7.828125 -4.367188 8.617188 -4.03125 9.703125 -4.03125 C 10.816406 -4.03125 11.617188 -4.378906 12.109375 -5.078125 C 12.597656 -5.773438 12.84375 -6.722656 12.84375 -7.921875 L 12.84375 -16.65625 L 17.75 -16.65625 L 17.75 -7.765625 C 17.75 -6.253906 17.539062 -4.96875 17.125 -3.90625 C 16.71875 -2.851562 16.144531 -2 15.40625 -1.34375 C 14.675781 -0.695312 13.820312 -0.222656 12.84375 0.078125 C 11.863281 0.378906 10.816406 0.53125 9.703125 0.53125 Z M 9.703125 0.53125 "/></g></g></g><g fill="#4ba658" fill-opacity="1"><g transform="translate(248.85972, 246.236643)"><g><path d="M 8.890625 0.546875 C 7.703125 0.546875 6.617188 0.316406 5.640625 -0.140625 C 4.660156 -0.597656 3.820312 -1.234375 3.125 -2.046875 C 2.4375 -2.867188 1.898438 -3.816406 1.515625 -4.890625 C 1.140625 -5.960938 0.953125 -7.109375 0.953125 -8.328125 C 0.953125 -9.535156 1.132812 -10.675781 1.5 -11.75 C 1.875 -12.820312 2.40625 -13.765625 3.09375 -14.578125 C 3.789062 -15.390625 4.632812 -16.023438 5.625 -16.484375 C 6.613281 -16.953125 7.71875 -17.1875 8.9375 -17.1875 C 9.726562 -17.1875 10.445312 -17.054688 11.09375 -16.796875 C 11.738281 -16.535156 12.296875 -16.210938 12.765625 -15.828125 C 13.234375 -15.441406 13.601562 -15.050781 13.875 -14.65625 L 13.78125 -16.5 L 13.78125 -22.65625 L 18.703125 -22.65625 L 18.703125 0 L 14 0 L 14 -2.109375 C 13.695312 -1.679688 13.3125 -1.257812 12.84375 -0.84375 C 12.375 -0.4375 11.8125 -0.101562 11.15625 0.15625 C 10.5 0.414062 9.742188 0.546875 8.890625 0.546875 Z M 9.8125 -4 C 10.5625 -4 11.238281 -4.1875 11.84375 -4.5625 C 12.445312 -4.945312 12.925781 -5.46875 13.28125 -6.125 C 13.632812 -6.78125 13.8125 -7.515625 13.8125 -8.328125 C 13.8125 -9.128906 13.632812 -9.859375 13.28125 -10.515625 C 12.925781 -11.171875 12.445312 -11.6875 11.84375 -12.0625 C 11.25 -12.445312 10.570312 -12.640625 9.8125 -12.640625 C 9.050781 -12.640625 8.367188 -12.457031 7.765625 -12.09375 C 7.160156 -11.726562 6.679688 -11.222656 6.328125 -10.578125 C 5.984375 -9.929688 5.8125 -9.179688 5.8125 -8.328125 C 5.8125 -7.515625 5.972656 -6.78125 6.296875 -6.125 C 6.628906 -5.46875 7.09375 -4.945312 7.6875 -4.5625 C 8.289062 -4.1875 9 -4 9.8125 -4 Z M 9.8125 -4 "/></g></g></g><g fill="#4ba658" fill-opacity="1"><g transform="translate(269.481674, 246.236643)"><g><path d="M 18.28125 -8.453125 C 18.28125 -8.179688 18.269531 -7.945312 18.25 -7.75 C 18.238281 -7.5625 18.21875 -7.34375 18.1875 -7.09375 L 5.90625 -7.09375 C 6.101562 -5.988281 6.535156 -5.148438 7.203125 -4.578125 C 7.878906 -4.015625 8.691406 -3.734375 9.640625 -3.734375 C 10.515625 -3.734375 11.179688 -3.894531 11.640625 -4.21875 C 12.109375 -4.539062 12.4375 -4.945312 12.625 -5.4375 L 17.921875 -5.4375 C 17.742188 -4.695312 17.425781 -3.972656 16.96875 -3.265625 C 16.507812 -2.554688 15.925781 -1.914062 15.21875 -1.34375 C 14.519531 -0.769531 13.707031 -0.316406 12.78125 0.015625 C 11.863281 0.359375 10.847656 0.53125 9.734375 0.53125 C 8.441406 0.53125 7.253906 0.300781 6.171875 -0.15625 C 5.097656 -0.625 4.171875 -1.265625 3.390625 -2.078125 C 2.609375 -2.890625 2.003906 -3.832031 1.578125 -4.90625 C 1.160156 -5.976562 0.953125 -7.117188 0.953125 -8.328125 C 0.953125 -9.535156 1.160156 -10.675781 1.578125 -11.75 C 2.003906 -12.820312 2.609375 -13.765625 3.390625 -14.578125 C 4.171875 -15.390625 5.097656 -16.023438 6.171875 -16.484375 C 7.253906 -16.953125 8.441406 -17.1875 9.734375 -17.1875 C 11.046875 -17.1875 12.222656 -16.953125 13.265625 -16.484375 C 14.316406 -16.023438 15.21875 -15.394531 15.96875 -14.59375 C 16.71875 -13.789062 17.289062 -12.863281 17.6875 -11.8125 C 18.082031 -10.757812 18.28125 -9.640625 18.28125 -8.453125 Z M 6.09375 -10.4375 L 13.21875 -10.4375 C 13.164062 -10.945312 12.976562 -11.40625 12.65625 -11.8125 C 12.332031 -12.21875 11.914062 -12.535156 11.40625 -12.765625 C 10.90625 -13.003906 10.351562 -13.125 9.75 -13.125 C 9.25 -13.125 8.753906 -13.035156 8.265625 -12.859375 C 7.785156 -12.679688 7.351562 -12.390625 6.96875 -11.984375 C 6.582031 -11.585938 6.289062 -11.070312 6.09375 -10.4375 Z M 6.09375 -10.4375 "/></g></g></g><g fill="#000000" fill-opacity="1"><g transform="translate(288.534327, 246.236643)"><g><path d="M 4.5 0.46875 C 3.957031 0.46875 3.484375 0.351562 3.078125 0.125 C 2.671875 -0.101562 2.351562 -0.410156 2.125 -0.796875 C 1.90625 -1.179688 1.796875 -1.609375 1.796875 -2.078125 C 1.796875 -2.535156 1.90625 -2.957031 2.125 -3.34375 C 2.351562 -3.726562 2.671875 -4.035156 3.078125 -4.265625 C 3.492188 -4.492188 3.972656 -4.609375 4.515625 -4.609375 C 5.078125 -4.609375 5.5625 -4.492188 5.96875 -4.265625 C 6.375 -4.035156 6.6875 -3.726562 6.90625 -3.34375 C 7.132812 -2.957031 7.25 -2.535156 7.25 -2.078125 C 7.25 -1.609375 7.132812 -1.179688 6.90625 -0.796875 C 6.6875 -0.410156 6.367188 -0.101562 5.953125 0.125 C 5.546875 0.351562 5.0625 0.46875 4.5 0.46875 Z M 4.5 0.46875 "/></g></g></g></svg>